<?xml version="1.0" encoding="UTF-8" standalone="no"?>
<!DOCTYPE svg PUBLIC "-//W3C//DTD SVG 1.1//EN" "http://www.w3.org/Graphics/SVG/1.1/DTD/svg11.dtd">
<svg width="100%" height="100%" viewBox="0 0 315 315" version="1.1" xmlns="http://www.w3.org/2000/svg" xmlns:xlink="http://www.w3.org/1999/xlink" xml:space="preserve" xmlns:serif="http://www.serif.com/" style="fill-rule:evenodd;clip-rule:evenodd;stroke-linejoin:round;stroke-miterlimit:2;">
    <g transform="matrix(1,0,0,1,-756.367,-623.159)">
        <g id="Colored" transform="matrix(1,0,0,1,775.367,642.159)">
            <rect x="-19" y="-19" width="315" height="314.833" style="fill:none;"/>
            <g transform="matrix(4.16667,0,0,4.16667,33.8808,11.7332)">
                <path d="M3.27,13.695C-1.287,20.242 -0.723,28.76 2.762,35.717C2.84,35.887 2.93,36.047 3.016,36.211C3.064,36.318 3.12,36.424 3.18,36.529C3.206,36.586 3.247,36.65 3.281,36.706C3.337,36.82 3.396,36.924 3.456,37.033C3.568,37.221 3.68,37.413 3.792,37.6C3.855,37.705 3.916,37.809 3.986,37.914C4.105,38.115 4.244,38.314 4.367,38.516C4.423,38.602 4.475,38.686 4.535,38.77C4.714,39.043 4.894,39.312 5.091,39.576C5.091,39.584 5.099,39.591 5.106,39.595C5.136,39.64 5.169,39.683 5.199,39.724C5.367,39.953 5.535,40.177 5.711,40.399C5.771,40.481 5.837,40.563 5.897,40.644C6.058,40.838 6.215,41.032 6.371,41.224C6.431,41.293 6.491,41.366 6.554,41.437C6.763,41.689 6.983,41.939 7.208,42.186C7.208,42.189 7.215,42.194 7.219,42.2C7.226,42.209 7.233,42.219 7.249,42.228C7.465,42.465 7.685,42.698 7.909,42.93C7.98,43.001 8.051,43.07 8.129,43.145C8.301,43.318 8.473,43.494 8.656,43.665C8.73,43.736 8.805,43.805 8.876,43.874C9.115,44.098 9.354,44.322 9.604,44.537C9.607,44.541 9.611,44.543 9.615,44.546C9.656,44.582 9.701,44.617 9.738,44.652C9.958,44.841 10.179,45.027 10.402,45.212C10.492,45.287 10.582,45.358 10.671,45.431C10.858,45.578 11.044,45.72 11.231,45.862C11.328,45.935 11.425,46.009 11.526,46.086C11.728,46.237 11.937,46.384 12.142,46.53C12.216,46.584 12.291,46.638 12.37,46.688C12.388,46.705 12.411,46.72 12.429,46.735C12.634,46.87 12.829,47 13.03,47.133C13.12,47.19 13.206,47.247 13.292,47.304C13.605,47.504 13.918,47.696 14.229,47.883C14.318,47.93 14.407,47.98 14.493,48.03C14.725,48.165 14.96,48.297 15.199,48.424C15.329,48.497 15.46,48.561 15.594,48.627C15.755,48.715 15.923,48.805 16.095,48.893C16.136,48.909 16.177,48.924 16.214,48.945C16.285,48.977 16.352,49.012 16.419,49.045C16.681,49.174 16.949,49.296 17.226,49.419C17.278,49.443 17.334,49.465 17.39,49.494C17.699,49.628 18.009,49.757 18.327,49.882C18.401,49.91 18.476,49.943 18.554,49.969C18.842,50.082 19.14,50.191 19.435,50.298C19.473,50.313 19.506,50.324 19.543,50.337C19.872,50.449 20.196,50.555 20.529,50.658C20.607,50.681 20.686,50.709 20.768,50.729C21.107,50.832 21.436,50.951 21.783,51.017C43.815,55.033 50.217,37.775 50.217,37.775C44.838,44.775 35.294,46.625 26.254,44.568C25.918,44.492 25.586,44.386 25.247,44.285C25.168,44.262 25.079,44.236 25,44.209C24.672,44.109 24.347,44.003 24.03,43.895C23.985,43.88 23.937,43.863 23.892,43.844C23.605,43.746 23.321,43.637 23.037,43.527C22.959,43.494 22.877,43.465 22.798,43.436C22.484,43.313 22.175,43.18 21.873,43.047C21.805,43.023 21.749,42.995 21.686,42.969C21.421,42.848 21.167,42.729 20.909,42.605C20.831,42.572 20.76,42.534 20.682,42.495C20.48,42.4 20.279,42.293 20.081,42.189C19.943,42.118 19.808,42.053 19.678,41.98C19.435,41.85 19.192,41.711 18.95,41.577C18.875,41.526 18.793,41.483 18.707,41.437C18.394,41.251 18.076,41.058 17.767,40.86C17.677,40.804 17.595,40.748 17.513,40.69C17.285,40.547 17.061,40.396 16.841,40.246C16.77,40.196 16.699,40.144 16.625,40.091C16.412,39.942 16.203,39.791 15.99,39.636C15.9,39.565 15.807,39.494 15.71,39.423C15.52,39.276 15.329,39.13 15.139,38.977C15.057,38.908 14.971,38.841 14.889,38.774C14.643,38.576 14.411,38.378 14.176,38.173C14.153,38.148 14.12,38.128 14.094,38.107C13.844,37.884 13.594,37.654 13.347,37.426C13.272,37.355 13.21,37.29 13.135,37.223C12.956,37.047 12.776,36.876 12.601,36.698C12.526,36.624 12.459,36.555 12.388,36.484C12.164,36.258 11.944,36.025 11.728,35.786C11.716,35.776 11.705,35.766 11.694,35.752C11.466,35.502 11.246,35.249 11.026,34.991C10.966,34.922 10.91,34.851 10.851,34.784C10.69,34.586 10.529,34.386 10.365,34.188C10.313,34.112 10.253,34.039 10.193,33.964C10.003,33.72 9.82,33.476 9.637,33.224C4.621,26.38 2.811,16.935 6.823,9.185" style="fill:rgb(63,46,140);fill-rule:nonzero;"/>
                <g transform="matrix(1,0,0,1,-9.6,8.86359)">
                    <path d="M29.308,4.054C27.359,6.913 27.172,10.465 28.516,13.619C29.942,16.971 32.857,19.6 36.254,20.845C36.392,20.899 36.53,20.944 36.672,20.992C36.735,21.011 36.795,21.031 36.862,21.052C37.06,21.113 37.258,21.188 37.463,21.228C46.857,23.042 49.403,16.407 50.086,15.431C47.851,18.645 44.1,19.415 39.497,18.297C39.135,18.209 38.739,18.079 38.389,17.952C37.941,17.793 37.497,17.609 37.064,17.405C36.254,17.012 35.47,16.538 34.746,15.989C30.625,12.865 28.072,6.906 30.759,2.052" style="fill:rgb(63,46,140);fill-opacity:0.39;fill-rule:nonzero;"/>
                </g>
            </g>
        </g>
    </g>
</svg>
